<svg width="904" height="904" viewBox="0 0 904 904" fill="none" xmlns="http://www.w3.org/2000/svg">
<g filter="url(#filter0_d_18_8)">
<path d="M452 0C204.6 0 4 200.6 4 448C4 695.4 204.6 896 452 896C699.4 896 900 695.4 900 448C900 200.6 699.4 0 452 0ZM617.4 618.2L551.4 617.9L452 499.4L352.7 617.8L286.6 618.1C282.2 618.1 278.6 614.6 278.6 610.1C278.6 608.2 279.3 606.4 280.5 604.9L410.6 449.9L280.5 295C279.292 293.534 278.621 291.699 278.6 289.8C278.6 285.4 282.2 281.8 286.6 281.8L352.7 282.1L452 400.6L551.3 282.2L617.3 281.9C621.7 281.9 625.3 285.4 625.3 289.9C625.3 291.8 624.6 293.6 623.4 295.1L493.5 450L623.5 605C624.7 606.5 625.4 608.3 625.4 610.2C625.4 614.6 621.8 618.2 617.4 618.2Z" fill="black"/>
</g>
<defs>
<filter id="filter0_d_18_8" x="0" y="0" width="904" height="904" filterUnits="userSpaceOnUse" color-interpolation-filters="sRGB">
<feFlood flood-opacity="0" result="BackgroundImageFix"/>
<feColorMatrix in="SourceAlpha" type="matrix" values="0 0 0 0 0 0 0 0 0 0 0 0 0 0 0 0 0 0 127 0" result="hardAlpha"/>
<feOffset dy="4"/>
<feGaussianBlur stdDeviation="2"/>
<feComposite in2="hardAlpha" operator="out"/>
<feColorMatrix type="matrix" values="0 0 0 0 0 0 0 0 0 0 0 0 0 0 0 0 0 0 0.25 0"/>
<feBlend mode="normal" in2="BackgroundImageFix" result="effect1_dropShadow_18_8"/>
<feBlend mode="normal" in="SourceGraphic" in2="effect1_dropShadow_18_8" result="shape"/>
</filter>
</defs>
</svg>
